<?xml version="1.0" encoding="UTF-8" standalone="no"?>
<svg
   version="1.1"
   id="Layer_1"
   x="0px"
   y="0px"
   viewBox="453.9971 -26.0014 1652.0029 1652.0029"
   enable-background="new 453.9971 -26.0014 1652.0029 1652.0029"
   xml:space="preserve"
   sodipodi:docname="collective_leadership.svg"
   inkscape:version="1.2.2 (b0a8486541, 2022-12-01)"
   inkscape:export-filename="collective_leadership.png"
   inkscape:export-xdpi="96"
   inkscape:export-ydpi="96"
   xmlns:inkscape="http://www.inkscape.org/namespaces/inkscape"
   xmlns:sodipodi="http://sodipodi.sourceforge.net/DTD/sodipodi-0.dtd"
   xmlns="http://www.w3.org/2000/svg"
   xmlns:svg="http://www.w3.org/2000/svg"><defs
   id="defs4658" /><sodipodi:namedview
   id="namedview4656"
   pagecolor="#ffffff"
   bordercolor="#000000"
   borderopacity="0.25"
   inkscape:showpageshadow="2"
   inkscape:pageopacity="0.0"
   inkscape:pagecheckerboard="0"
   inkscape:deskcolor="#d1d1d1"
   showgrid="false"
   inkscape:zoom="0.47336478"
   inkscape:cx="345.39959"
   inkscape:cy="826.00146"
   inkscape:window-width="1920"
   inkscape:window-height="1011"
   inkscape:window-x="0"
   inkscape:window-y="0"
   inkscape:window-maximized="1"
   inkscape:current-layer="g4653" />
<g
   id="g4653">
	<g
   id="g4649"
   transform="translate(7.484648,-151.51667)">
		
		
	</g>
	<path
   d="m 2012.1045,698.29383 c 0,0 15.4232,-15.6755 32.1161,-33.8832 16.432,-19.2193 10.3666,-23.5146 6.0674,-34.6447 -4.2994,-11.1262 -8.5985,-5.8143 -14.9191,-6.3214 -6.3242,-0.5042 -4.5524,2.5292 -2.7845,3.5399 1.772,1.0125 -1.0083,2.026 -1.2634,4.8036 -0.2511,2.7845 -0.7556,3.5428 2.0229,7.8423 2.7845,4.2992 2.2762,4.8066 1.0125,6.0701 -1.2697,1.2628 -6.0692,8.3445 -7.3328,12.1356 -1.2638,3.7932 -5.561,7.8403 -9.6113,9.357 -4.0442,1.5197 -2.7804,0.5073 -4.0442,-5.0576 -1.2615,-5.563 -1.5167,-13.9077 -4.5524,-25.0347 -3.0356,-11.127 -13.1492,-10.1164 -23.5198,-18.9672 6.0693,-6.0663 -1.0105,-14.1576 -1.0105,-14.1576 0,0 6.3245,-10.8748 8.3475,-13.1509 2.021,-2.2761 4.046,-2.2761 6.0692,-4.8036 2.0253,-2.5273 -2.5294,-1.2646 0.5045,-9.358 3.0396,-8.0913 3.7948,-9.8622 3.0396,-17.9516 -0.7595,-8.0953 -10.6279,-13.9124 -16.1869,-16.4399 -5.5649,-2.5272 -9.356,-1.0116 -13.4022,0 -4.0503,1.0135 -5.818,2.2761 -7.59,4.5515 -1.7662,2.2761 -11.3772,6.5764 -8.5966,11.1279 2.7803,4.5513 1.7699,5.5621 1.7699,8.3445 0,2.7834 -2.2761,3.5409 -3.0338,9.103 -0.7612,5.5651 3.7931,8.8517 3.7931,8.8517 l -1.5167,9.6122 c 0,0 -1.0125,0.5023 -4.3014,5.8112 -8.7667,-0.9938 -15.6171,0.3954 -20.6185,3.7378 -5.8577,-5.4789 -10.6613,-5.9634 -10.6613,-5.9634 0,0 -3.7593,-0.5024 -5.7627,-3.5072 -2.0033,-3.0081 1.5031,-3.7606 1.5031,-9.5223 0,-5.7617 -1.7502,-12.7762 -2.5038,-13.7779 -0.7515,-1.0036 1.7504,-13.2786 -1.0006,-36.5768 -2.7549,-23.3002 -24.3027,-24.0517 -30.819,-22.5507 -6.5103,1.504 -8.7688,2.0054 -14.2784,2.7558 -5.5114,0.7554 -13.0265,12.7813 -13.5269,24.0536 -0.5022,11.2734 -2.7587,29.8114 -3.0098,37.8297 -0.2491,8.0173 -2.2524,8.2654 -13.5249,11.2734 -3.3163,0.8839 -6.1245,2.1713 -8.6243,3.9315 -4.7798,-6.8089 -8.1813,-11.5156 -8.1813,-11.5156 -4.155,-12.4728 -20.7847,-12.4728 -32.0037,-14.134 -9.1464,-2.911 -10.3904,-11.2219 -10.3904,-11.2219 l -0.8226,-1.248 c 8.3101,-2.4938 5.816,-16.6238 10.3884,-22.444 6.2313,-0.4141 3.7375,-10.8086 3.7375,-10.8086 0,0 -0.8267,-7.0659 -1.2478,-20.3643 -0.4135,-13.3015 -13.7107,-19.1194 -20.7806,-20.3645 -7.0641,-1.2516 -20.3694,2.9052 -25.351,7.063 -4.9895,4.155 -5.8202,11.2219 -7.4851,18.7061 -1.6594,7.4805 4.9933,9.972 5.4105,11.2191 0.3402,1.0372 0.1147,5.4957 -0.4469,9.8316 -14.488,-42.29 -42.4531,-28.8385 -47.4307,-29.8333 -5.2448,-1.049 -11.8877,-4.1964 -13.6377,-8.389 -1.7462,-4.1953 2.4521,-18.8791 2.4521,-18.8791 0,0 7.691,-1.3981 9.7871,-8.043 2.1023,-6.6407 -4.5485,-4.1935 -4.5485,-4.1935 l 2.1023,-2.4473 c 0,0 0,-6.2937 0,-11.5374 0,-5.2455 -1.0521,-18.8762 -10.8413,-29.3654 -9.7892,-10.4863 -33.9119,-3.8464 -41.9508,4.1935 -8.0431,8.0428 -6.6371,10.8402 -6.2927,14.3357 0.3519,3.4954 -1.0443,1.7463 -3.1447,10.137 -2.0981,8.3911 6.6429,6.645 6.6429,6.645 0,0 0,4.1915 0,14.6807 0,10.4892 6.2889,7.3439 6.2889,7.3439 0,0 1.0499,2.4462 1.0499,9.7862 0,7.3436 4.5466,4.5455 6.9868,11.8853 2.4542,7.345 0.356,8.042 -3.4923,17.1331 -2.0468,4.8421 -5.4899,6.4083 -9.364,7.8204 -5.0668,-37.8938 -33.4828,-29.6522 -33.4828,-29.6522 0,0 1.7166,-20.5541 1.7166,-28.6891 0,-8.1397 -6.8544,-27.4125 -14.5651,-46.2542 -7.7068,-18.8436 -36.829,-5.997 -43.2543,-0.4261 -6.4213,5.5661 -21.4114,32.5435 -27.8289,44.1096 -6.2649,11.2665 -8.0508,31.0572 -8.1396,32.0698 -1.1985,-5.9655 -2.4069,-13.2717 -3.5498,-22.6743 -4.4617,-36.6429 -26.7433,-43.5754 -33.6747,-45.0615 -6.9315,-1.4832 -6.9336,-7.428 -14.8579,-13.8641 -7.9182,-6.437 -20.3019,-3.4698 -23.7648,-3.4698 -3.4725,0 -1.491,-9.4075 -0.9946,-15.3513 0.4963,-5.9407 1.9835,-10.8895 8.4226,-10.8895 6.4352,0 4.4515,-2.9724 4.4515,-8.4206 0,-5.4473 0,-18.3216 -0.4944,-21.7893 -0.4965,-3.4677 1.9835,-9.9007 -8.9131,-27.2335 -10.8926,-17.3317 -41.0986,-7.9222 -54.9615,5.9436 -13.865,13.863 -4.9539,31.1958 -4.4595,43.0793 0.4962,11.8824 0.9907,6.9334 4.9537,12.3809 3.9613,5.4463 10.4004,15.3492 10.4004,15.3492 l 0.4923,6.9314 c 0,0 -6.9314,3.962 -13.3684,5.9438 -6.4374,1.9805 -5.9429,5.9415 -10.3983,5.9415 -4.4597,0 -9.4116,2.476 -14.8557,10.4003 -12.3682,4.231 -18.5323,17.2319 -21.3029,30.989 -1.948,-0.7247 -3.3203,-1.1084 -3.3203,-1.1084 0,0 2.9843,-1.9886 4.9756,-6.6339 -0.3342,-4.3111 -28.1987,-14.926 -28.1987,-14.926 l -0.9948,-1.9904 c 0,0 8.6263,-6.3008 12.2729,-13.5982 3.6508,-7.2973 2.6541,-12.9383 2.6541,-12.9383 0,0 2.6538,-0.9967 4.9717,-10.6149 2.99,-11.6077 -2.9823,-10.612 -2.9823,-10.612 0,0 0,-3.6486 -0.6644,-17.2487 -0.6626,-13.5989 -14.927,-30.5164 -39.4691,-22.5554 -24.5441,7.9608 -22.5586,27.8605 -24.8761,37.4805 -2.3239,9.621 -0.6665,13.5999 -0.6665,18.2435 0,4.6443 -4.9758,23.5502 -9.6191,29.8547 -3.7081,5.0311 -19.25,9.6379 -26.8856,11.9675 -2.3574,-2.1912 -5.1162,-4.326 -8.3574,-6.3411 -21.8782,-9.6825 -51.291,-15.4194 -51.291,-15.4194 l -2.5077,-12.9119 c 0,0 7.1727,1.4348 8.9666,-5.0181 1.7957,-6.4569 2.8674,-11.121 2.1516,-12.9129 -0.7159,-1.7946 -2.8695,-1.4358 -2.1516,-4.3062 0.7159,-2.8677 1.4358,-7.5297 1.7957,-11.1161 0.356,-3.5884 1.0718,-5.38 0.7119,-7.5316 -0.3558,-2.1527 -2.8677,-5.3813 -1.7917,-7.8907 1.0797,-2.5117 -0.36,-8.2487 -3.9435,-12.1949 -3.5874,-3.9442 -11.4761,-9.3224 -14.3474,-13.2696 -2.8695,-3.9454 -8.9685,-6.455 -12.196,-4.6613 -3.2234,1.7907 -5.7369,2.8685 -11.4779,2.5086 -5.735,-0.3581 -11.8319,4.3043 -13.9856,5.7391 -2.1495,1.4347 -12.5499,1.7926 -13.6277,7.1708 -1.0759,5.3831 -3.9454,10.4021 -5.0232,13.6305 -1.0718,3.2275 -4.6631,15.7803 -2.8676,16.8581 1.7957,1.076 4.6632,8.9667 4.6632,8.9667 0,0 -4.3051,4.6611 -1.7957,7.8886 2.5135,3.2285 3.5895,3.5864 2.5135,6.8148 -1.0778,3.2286 -2.5135,7.5298 -0.3578,7.8887 2.1497,0.3599 7.8866,2.5126 8.9664,6.816 1.0739,4.3051 7.8885,2.5115 9.3224,2.5115 1.4358,0 2.1537,12.9118 2.1537,12.9118 0,0 -1.7935,3.2273 -8.2526,6.0958 -6.4508,2.8687 -24.028,10.4014 -28.3293,16.1412 -2.6003,3.4639 -8.7291,5.7626 -12.8623,13.8273 -0.5892,-1.0064 -1.1786,-2.011 -1.7679,-3.0078 -13.0145,-21.993 -50.8027,-27.5688 -50.8027,-27.5688 l -0.625,-0.3143 c -8.6737,0 -22.30145,-12.0804 -21.99075,-18.276 0.3104,-6.1959 -0.9296,-14.2499 -0.9296,-14.2499 0,0 1.24,-0.6189 4.6473,-9.6003 3.40535,-8.9863 -0.3124,-14.8734 -0.3124,-14.8734 0,0 1.8591,-5.2653 -8.0528,-22.3004 -9.9138,-17.0381 -26.6402,-26.6404 -45.8467,-14.5562 -19.2006,12.0763 -18.2732,28.8068 -12.3918,54.825 5.8875,26.0202 12.0814,22.6129 17.0353,26.6403 4.9598,4.0255 3.1028,8.9832 4.6512,13.9382 1.5445,4.9598 -11.4621,12.3926 -19.515,14.8727 -7.1629,2.2029 -18.4729,12.7258 -24.817,20.6956 -0.5735,-0.2274 -1.147,-0.3718 -1.7205,-0.3718 -3.88,0 -7.7641,2.2199 -13.8668,-2.2189 -6.1049,-4.4396 0,-9.4304 -0.5559,-12.2018 -0.5536,-2.7775 0.5559,-13.8699 3.8841,-17.2003 3.3284,-3.3263 2.7745,-11.647 2.7745,-16.0828 0,-4.4386 1.1116,-5.5502 2.215,-11.6539 1.1094,-6.0999 -2.7728,-4.9926 -6.097,-7.2094 -3.3302,-2.2148 2.2129,-3.8851 2.7728,-8.8764 0.5517,-4.9934 -1.6652,-6.6576 -8.3218,-9.9868 -6.6566,-3.3254 -2.2227,-1.1105 -2.2227,-6.1019 0,-4.9907 -4.4339,-4.9907 -8.3179,-4.9907 -3.8821,0 -9.4302,-4.9904 -11.649,-7.2112 -2.2189,-2.2189 -10.5387,0 -14.9814,1.6653 -4.4337,1.664 -6.6536,6.6556 -14.9754,12.2037 -8.3218,5.5463 -6.1009,11.651 -6.6566,27.1813 -0.5557,15.534 6.6566,24.9623 9.4301,37.1691 2.7717,12.2018 4.4379,14.9784 6.104,21.6321 1.6642,6.6565 -12.2077,6.1029 -25.5191,10.5406 -13.3132,4.4377 -26.0746,35.5028 -28.2917,46.0466 -2.2206,10.5397 6.6558,13.3091 6.6558,13.3091 0,0 -0.3937,12.9792 -1.766,27.9297 0.2857,-8.7873 -7.9065,-14.3871 -6.7553,-14.3871 1.3506,0 6.7355,1.3428 7.1826,-3.8167 0.4479,-5.1586 -11.2198,-31.1789 -14.5828,-31.8523 -3.3621,-0.6744 -18.1662,-6.5036 -18.1662,-6.5036 0,0 5.1574,-5.3848 3.5844,-12.5616 -1.5683,-7.1776 -4.2579,-11.664 -4.2579,-11.664 0,0 3.5836,3.1366 6.5024,6.0524 2.9159,2.9161 5.8338,-0.8928 5.8338,-0.8928 0,0 -0.9007,-0.6733 -2.469,-0.6733 -1.5723,0 -6.0515,-4.2628 -6.0515,-4.2628 0,0 5.8262,-0.8969 12.5558,2.913 6.7338,3.8149 0.45,3.8149 0,4.9371 -0.447,1.1183 3.1415,4.9351 3.8159,-3.1414 0.6713,-8.0757 -7.4042,-8.0735 -9.8684,-9.1959 -2.4729,-1.1223 1.3429,-3.1406 3.811,-0.8979 2.468,2.2426 5.3831,0.8979 6.9522,0.4489 1.5741,-0.4489 4.9362,-0.2244 7.6315,1.7935 1.5664,-4.9331 -7.405,-12.3382 -7.405,-12.3382 0,0 3.5873,2.023 5.3829,-5.1576 1.7957,-7.6257 -13.236,-7.6257 -13.236,-7.6257 0,0 3.8157,1.7936 5.384,2.0179 1.5731,0.2246 0.8978,2.2446 -1.5684,4.9334 -2.472,2.6954 -9.1986,-1.1213 -11.6618,-10.0938 -2.4702,-8.9693 -5.1665,-19.7396 -10.9937,-28.0375 -5.8328,-8.301 -17.7242,-15.7021 -32.9794,-11.215 -15.2493,4.4844 -18.6142,16.3736 -18.8337,23.7767 -0.2294,7.4012 -3.1443,27.8151 -3.1443,32.5248 0,4.7105 -1.5723,7.1757 -8.5256,19.0661 -6.9533,11.8904 2.0221,12.3393 2.0221,6.5053 0,-5.831 11.4406,-5.1598 11.4406,-5.1598 0,0 1.7916,6.281 0.2214,9.1979 -1.5683,2.9172 -23.3237,9.8683 -24.897,11.663 -1.5693,1.7946 -12.7833,11.666 -15.2543,19.7424 -2.467,8.0707 -9.8732,21.9832 -9.8732,21.9832 l 8.9794,2.0182 c 0,0 0.6693,8.5214 0.6693,12.5587 0,4.0385 -1.3467,32.7523 -3.1413,40.3769 -1.7928,7.6266 -3.5874,34.5468 -4.7087,49.799 -1.1243,15.2552 -0.4479,63.4803 -0.6733,72.9024 -0.2235,9.4204 23.7758,19.9622 23.7758,19.9622 v 4.2635 l 6.2838,2.0214 c 0,0 3.81,48.6726 3.3621,52.4895 -0.4469,3.8148 -0.8969,13.4546 -8.3001,21.0862 -3.1571,3.2503 -6.0238,8.7578 -8.3661,15.3502 -2.2426,-19.2028 -5.7439,-43.1078 -10.5071,-58.0259 -8.9952,-28.1869 -14.393,-45.2792 -14.9912,-48.8766 -0.5972,-3.5974 2.9971,-19.1906 4.501,-32.0845 1.4951,-12.896 0.8969,-25.4874 -1.2053,-33.5858 -2.0944,-8.0953 -3.8928,-8.0953 -0.2985,-15.8929 3.6022,-7.7949 5.999,-29.0847 3.6011,-45.2783 -2.3989,-16.1916 -23.9894,-19.1928 -29.3862,-24.5896 -5.395,-5.3988 -5.6965,-10.496 -6.5974,-14.0936 -0.8978,-3.5991 7.7949,-14.6954 9.2969,-19.1905 1.5009,-4.4982 0.5982,-22.1918 -1.2035,-26.3893 -1.7957,-4.1984 -9.5933,-13.4921 -19.1877,-14.394 -9.5944,-0.8979 -21.2917,2.6984 -22.7899,6.8978 -1.4999,4.1996 -3.8989,9.5964 -5.3988,16.7939 -1.499,7.1975 -1.1974,28.1848 -1.1974,28.1848 0.002,1.4931 -6.5994,3.3055 -9.8959,4.2045 -3.3027,0.9007 -4.7997,2.1013 -7.4962,4.4971 -2.7015,2.3998 -2.3989,2.1002 -11.0984,13.4971 -8.6924,11.393 1.5012,17.6877 1.5012,17.6877 0,0 -0.8999,4.1974 -3.6014,17.9932 -2.6964,13.7939 -2.9951,40.7833 -1.1944,51.2764 1.7987,10.4971 10.4941,26.0867 10.4941,26.0867 0,0 -2.9999,20.0914 -4.4981,25.1926 -1.4999,5.0963 -10.7936,69.5651 -12.2928,83.9611 -1.4979,14.3912 -14.397,75.8629 -14.397,75.8629 0,0 18.8931,4.1946 20.3951,4.7979 1.4951,0.6012 -0.9027,4.7917 -1.2013,6.5972 -0.2986,1.7977 -2.3978,4.1967 -2.7004,8.3912 -0.2987,4.2024 -1.1974,1.5088 -5.6975,5.4045 -4.499,3.8942 -6.5952,11.6915 -9.2977,15.894 -2.6965,4.1965 -4.1965,11.6896 -8.9931,25.78 -4.7978,14.0963 5.998,11.3951 8.9931,7.7998 2.9999,-3.6013 9.0001,-5.4009 12.2976,-11.7034 3.2958,-6.2909 14.3921,-18.5857 18.2869,-26.0828 3.9028,-7.499 22.4963,-27.8882 22.4963,-27.8882 l 30.282,2.7035 c 0,0 0.9,10.7919 0.9,15.2867 0,4.4991 -0.5984,15.5956 -2.3999,19.4952 -1.7946,3.894 -2.6966,6.5955 -2.6966,10.4913 0,3.8978 -6.8987,21.293 -8.9941,30.287 -2.0991,9.0001 -6.2976,17.9943 11.0925,13.493 17.3929,-4.4929 15.8919,-21.2887 16.1927,-23.9883 0.3016,-2.6995 2.9989,-3.5952 5.6965,-5.9961 2.6973,-2.3969 -0.5964,-3.5973 -1.7977,-8.0961 -1.1974,-4.4991 2.3987,-15.5936 4.495,-30.8844 2.1042,-15.2987 8.399,-29.9863 8.399,-29.9863 0,0 8.3967,-2.4031 15.5924,-7.4972 3.0247,-2.1417 6.9444,-3.1108 10.4783,-3.524 -0.9305,17.2704 3.8423,35.676 3.6248,43.187 -0.2294,7.6276 -2.9179,16.8253 -3.1423,24.6785 -0.2245,7.8511 1.3419,14.13 2.0172,25.1216 0.6703,10.9894 22.8788,20.4109 33.4243,17.7212 10.5416,-2.6896 2.2417,-12.5637 -3.5892,-25.7977 -5.831,-13.2363 -8.303,-25.1157 -8.303,-37.2325 0,-12.1147 6.5092,-27.3679 10.9934,-41.051 4.4841,-13.681 8.299,-29.6157 14.5799,-42.1743 6.2818,-12.5588 9.8672,-17.4959 9.8672,-24.2257 0,-6.7318 9.2028,-24.2276 9.2028,-24.2276 0,0 -2.6946,21.7585 -2.2426,25.347 0.4419,3.5933 -3.373,15.4768 -4.7147,28.0426 -1.3447,12.5596 4.0364,43.2936 6.5043,54.2831 2.4681,10.9918 0.2246,25.1274 -1.3477,29.6088 -1.5692,4.4912 -3.8148,18.8425 0,23.7767 3.8159,4.9381 4.7107,9.6488 4.7107,9.6488 0,0 9.6448,-0.2274 11.4404,-0.2274 1.8007,0 6.9572,3.8129 10.7681,10.9956 3.8148,7.1744 23.9993,7.6235 27.5916,5.1614 3.5892,-2.4679 -1.5692,-11.4445 -4.7077,-15.4827 -3.1445,-4.0364 -11.4435,-8.7468 -16.1511,-15.2513 -4.7136,-6.5062 -8.9763,-20.8616 -8.7548,-24.451 0.2264,-3.5892 -0.2215,-25.5686 4.2656,-50.6939 4.4892,-25.1234 0.445,-50.4724 0.445,-50.4724 0,0 2.2524,-11.66 2.6995,-18.8377 0.4469,-7.1797 2.9151,-6.2807 7.1728,-21.3116 4.2676,-15.0278 10.7729,-35.6651 10.7729,-35.6651 l 3.5825,-2.4689 -0.441,-4.2608 2.2386,2.2415 c 0,0 4.4862,0.2264 5.1606,0.2264 0.6725,0 11.214,0.6715 14.5799,-6.5034 0.4441,-0.9473 0.804,-1.9519 1.1017,-2.9961 0.885,0.2095 1.4061,0.3302 1.4061,0.3302 0,0 0.5546,13.3091 2.2179,19.9677 1.6642,6.6567 4.4398,13.8671 -0.5516,41.0491 -4.9944,27.1823 -6.6606,78.2222 -6.6606,78.2222 0,0 4.4398,31.0623 4.4398,47.7077 0,16.6417 -4.9933,16.6417 -7.7661,34.9482 -2.7736,18.3068 23.2982,28.2876 32.7283,24.9614 9.4304,-3.3284 7.2084,-14.4247 0,-29.9547 -7.2102,-15.5321 1.1095,-59.9116 2.22,-90.4252 1.1116,-30.5113 7.2105,-39.3859 9.982,-58.802 2.7776,-19.4151 3.3344,-68.79 3.3344,-68.79 l 8.8726,1.6642 6.1038,0.5587 c 0,0 -1.665,39.3849 -1.665,56.0273 0,16.6437 12.7595,31.62 12.7595,52.1428 0,20.5264 6.1009,66.5751 1.1095,91.5363 -4.9935,24.9594 -15.5331,18.3068 -31.6201,36.0557 -16.0897,17.755 13.868,18.3107 27.1803,16.6437 13.3131,-1.6653 25.5211,-12.2059 27.738,-16.088 2.2189,-3.8818 14.4227,-16.6395 17.1972,-22.7444 2.7784,-6.095 -9.4274,-14.4205 -9.4274,-14.4205 0,0 -4.4417,-7.7681 -4.4417,-12.2098 0,-4.4319 4.4417,-45.4849 5.5472,-80.434 1.1074,-34.9493 -7.7661,-53.8097 -7.2105,-67.6797 0.3718,-9.3155 1.9955,-25.3815 3.0219,-34.9305 0.6191,11.7667 1.337,26.4455 1.337,31.6488 0,8.363 4.3349,22.3033 10.5328,47.7057 6.1957,25.4004 5.5768,33.4561 4.9539,52.0447 -0.6191,18.5835 9.2947,12.0791 12.704,13.0085 3.4075,0.9276 -2.4798,2.7825 -5.2663,7.1234 -2.7865,4.3369 7.7484,7.4359 7.7484,7.4359 0,0 0.615,8.3651 4.0204,12.3857 3.4114,4.0322 9.6074,4.9636 12.0872,3.1068 2.47,-1.861 1.5445,1.5483 2.474,4.327 0.9254,2.7924 0.3084,4.9636 0.3084,9.2968 0,4.3368 -1.238,3.4093 -3.714,7.752 -2.4798,4.3291 -3.4074,16.0997 -5.8873,21.6765 -2.4761,5.5731 -10.2202,13.0128 -12.0811,21.3761 -1.8591,8.3593 18.5855,11.7667 29.4266,9.6013 10.8452,-2.1715 15.4888,-15.4906 15.4888,-17.3438 0,-1.8629 7.1271,-2.1713 9.2967,-6.5065 2.1674,-4.3386 -1.24,-16.7322 -3.101,-22.3053 -1.857,-5.5787 -1.2421,-22.3014 -4.3328,-26.9487 -3.1028,-4.6454 0.6189,-18.5875 2.4758,-19.8274 1.859,-1.2382 3.0952,-5.8855 2.7885,-10.5328 -0.3085,-4.6473 2.7884,-4.0265 3.718,-14.2468 0.9315,-10.228 -11.4621,-4.9578 -11.4621,-4.9578 0,0 -0.3087,-11.7697 -3.718,-25.0917 -3.4054,-13.322 -5.2663,-25.7098 -5.8852,-34.6972 -0.619,-8.9824 4.3369,-13.0097 4.0264,-15.7971 -0.3086,-2.7914 2.1675,-13.9401 4.0303,-19.2065 1.8569,-5.2644 1.8569,-24.1613 1.8569,-24.1613 l 2.1694,-0.3087 c 0,0 2.7845,6.5043 8.6738,19.5149 5.88335,13.0126 13.31915,31.9078 17.03705,40.891 3.7139,8.9803 8.0527,31.2867 13.0086,43.9869 4.9539,12.7002 15.7993,34.3846 17.0391,35.939 1.2379,1.5466 0,3.71 -3.7161,7.4298 -3.7197,3.718 1.859,8.0548 8.9822,11.4642 7.1256,3.4033 4.3389,0.9255 5.5769,5.2604 1.2382,4.3408 5.2664,6.2018 12.3898,6.2018 7.1255,0 1.859,10.2163 0.6212,10.2163 -1.2422,0 -8.0569,4.0305 -10.5328,7.1274 -2.4781,3.0989 0.9274,9.9156 -0.623,13.3173 -1.5464,3.4131 0.9333,6.2015 0.623,9.605 -0.3105,3.4073 -8.9883,7.1272 -13.6298,15.4868 -4.6493,8.3671 8.984,12.702 23.85,11.1536 14.8694,-1.5524 18.8938,1.5485 21.6844,-2.7865 2.7903,-4.3407 13.9402,-10.2203 17.6578,-15.4865 3.718,-5.2645 4.6434,-9.6073 1.238,-15.1783 -3.4075,-5.5826 -8.3652,-22.9264 -10.5327,-29.1261 -2.1676,-6.1899 -1.8551,-3.714 2.1676,-12.0792 4.0282,-8.3652 5.2661,-10.5327 5.2661,-15.7992 0,-5.2664 -4.3369,-20.7549 -8.6697,-23.8477 -4.3428,-3.1011 -5.2664,-16.1107 -12.0831,-26.6414 -6.8168,-10.5366 -6.8168,-15.183 -11.1537,-26.9518 -4.333,-11.7696 -0.6171,-24.7814 1.859,-40.2689 2.4779,-15.4887 -3.7161,-42.1349 -7.1213,-58.2426 -3.4094,-16.1066 2.4757,-32.5247 3.7158,-39.6479 1.2361,-7.1263 3.4056,-16.1077 3.4056,-19.5181 0,-3.4064 -1.2382,-13.6277 1.2418,-47.0838 2.478,-33.452 3.0969,-40.5803 -1.8589,-48.0123 -2.2366,-3.3529 -2.7686,-10.8679 -2.6818,-18.1069 0.087,0.1434 0.1683,0.2859 0.2592,0.4293 7.8907,12.5528 16.1392,23.6718 20.7985,29.4088 4.6631,5.7381 11.1219,11.476 11.1219,11.476 0,0 -6.459,5.38 -6.459,22.5922 0,17.22 -7.1727,55.2335 0.3619,83.2106 7.5327,27.9761 13.9836,57.0281 17.2151,76.3949 3.2275,19.3679 1.074,28.6891 1.074,31.9165 0,3.2275 2.5114,7.1768 -0.3561,20.8074 -2.8733,13.6259 -7.1708,30.1221 -0.7179,48.0538 6.459,17.933 9.6843,43.0367 11.8359,54.1567 2.1537,11.118 -1.4376,22.9542 -0.7218,28.6931 0.7218,5.739 -2.5096,12.552 -7.1708,16.8552 -4.6613,4.3052 -10.0402,11.1238 -6.0989,12.5557 3.9512,1.4358 6.4587,1.7898 6.4587,1.7898 l 8.2487,2.5095 c 0,0 5.021,-1.7898 6.4567,1.4397 1.4379,3.2295 6.0972,0.3558 7.1748,-1.4397 1.0719,-1.7898 8.2448,-1.0679 8.2448,-10.7502 0,-9.6882 3.2313,-21.1642 0.7157,-34.076 -2.5074,-12.9119 -2.5074,-46.9761 -1.0739,-51.6412 1.4337,-4.6632 1.4337,-30.4867 0.7198,-45.198 -0.7198,-14.7007 3.9435,-31.9168 3.9435,-61.6827 0,-29.7698 -2.5096,-62.4052 -2.5096,-69.5791 0,-7.1708 3.5854,-11.477 3.5854,-11.477 0,0 3.9473,20.8016 7.5326,34.4323 3.5835,13.6285 7.8868,49.1324 6.8129,67.7832 -1.0739,18.6498 -0.7158,32.2785 0,49.4954 0.7179,17.2172 0.7179,20.8046 -3.2294,26.1814 -3.9435,5.3812 -0.3522,8.2507 0,16.8513 0.3599,8.6085 -3.2255,28.3372 -2.8716,36.2257 0.3618,7.8947 1.4397,13.9896 2.8716,20.8085 1.4337,6.8069 6.8188,7.5227 7.1766,6.0909 0.358,-1.4318 3.9413,-2.5115 5.3792,-2.1475 1.4338,0.3557 4.3013,-3.2256 4.3013,-3.2256 0,0 3.2295,-3.5912 5.381,-7.1748 2.1516,-3.5874 3.2295,-4.661 3.2295,-12.1957 0,-7.533 -3.2295,-33.3564 -3.9493,-41.245 -0.7139,-7.8927 0,-11.4762 0,-16.1333 0,-1.691 0.9929,-5.3652 2.3555,-9.5737 1.7798,14.5078 5.476,29.1165 5.2012,36.928 -0.3362,9.2808 -1.9915,4.9717 -2.9904,10.6079 -0.9927,5.6381 2.3239,15.5952 4.6436,18.5795 2.3237,2.9822 5.3059,1.3251 6.3026,3.9769 0.9988,2.6541 -3.6469,7.6296 -3.9789,11.2765 -0.3344,3.6525 0,9.9572 11.6105,15.9236 11.6064,5.9724 12.2708,8.9547 19.5723,15.2572 7.2936,6.3027 25.5388,10.948 38.8025,7.2974 13.2699,-3.6467 9.9515,-9.6211 5.6423,-13.5999 -4.3132,-3.9869 -10.2855,-5.6443 -10.2855,-9.6232 0,-3.9771 -0.3323,-2.3177 -4.9738,-2.652 -4.6434,-0.3263 -19.2362,-14.2585 -19.2362,-14.2585 l 0.3263,-0.6685 c -0.6606,-2.9862 8.296,1.3251 15.2631,5.9685 6.9613,4.6455 9.6154,1.3269 22.5546,5.9703 12.9355,4.6493 20.2311,3.6487 28.1927,-0.6626 7.9601,-4.3073 4.9756,-12.2727 -9.619,-17.9091 -14.5947,-5.646 -27.8645,-9.6229 -27.8645,-9.6229 l -7.6276,-8.6204 c 0,0 6.3027,-6.9673 6.635,-13.9364 0.3341,-6.9633 -5.9703,-12.6012 -8.9585,-13.6019 -2.9844,-0.9888 1.3308,-27.5244 6.3026,-43.1157 4.9735,-15.5876 6.6368,-22.8868 4.6473,-29.5179 -1.9915,-6.6326 0.9967,-7.9637 2.6521,-9.619 1.6592,-1.6561 1.6592,-1.6581 0.9948,-4.6443 -0.6626,-2.9822 0,-8.294 2.6517,-10.947 2.6542,-2.6479 4.9758,-4.9777 2.3258,-10.6138 -2.6559,-5.6392 2.65,-6.3027 2.65,-8.9564 0,-2.653 3.3182,-9.6172 6.3026,-14.2605 2.9862,-4.6434 6.3047,-12.2722 14.5968,-30.8497 8.296,-18.5759 13.9302,-42.4583 14.2626,-46.7675 0.332,-4.316 2.3214,-4.9766 4.3112,-7.9619 1.9065,-2.8596 1.9952,-6.6191 2.8734,-8.9733 0.3243,1.2815 1.0759,5.1616 -0.1344,10.4022 -1.4852,6.433 3.9612,17.8231 6.9374,22.7741 2.9684,4.9547 13.8589,-4.9512 13.8589,-8.9122 0,-3.9613 3.4688,-3.465 3.4688,-3.465 l -4.4614,29.2121 26.2507,4.4586 c 0,0 4.9478,34.1672 5.4482,46.0525 0.4924,11.8815 -0.5004,53.4772 0,81.2085 0.4924,27.7318 13.865,57.4414 19.8037,74.769 5.9427,17.3318 -3.4688,32.6841 -8.9149,41.0989 -5.4445,8.4224 -8.4148,8.4224 -3.4609,17.3356 4.95,8.915 33.6688,0 33.6688,0 0,0 2.4738,0.9907 2.9703,3.9611 0.4945,2.9744 19.8057,1.9775 30.6982,-0.4924 10.8967,-2.4779 5.9467,-11.387 5.9467,-19.8115 0,-8.4109 -2.9664,-16.8354 -3.9633,-22.2797 -0.9906,-5.4523 0.9967,-16.8395 0.9967,-16.8395 0,0 20.302,-47.5376 23.7628,-74.7721 3.261,-25.6566 0.8187,-75.0256 0.9354,-89.3561 4.064,2.4601 7.7028,2.7667 16.2203,6.5538 11.5651,5.1359 11.9962,0.4281 11.9962,0.4281 0,0 0,8.5641 1.7087,11.1352 1.7164,2.5678 -1.7126,27.4094 -3.4272,35.1161 -1.7126,7.7097 -10.7067,15.4194 -12.8447,20.129 -2.1456,4.7097 -6.4292,44.1105 -6.8562,60.8076 -0.4252,16.7089 -4.7107,33.8368 -4.7107,44.5474 0,10.703 -2.5708,8.5612 -3.425,11.9844 -0.8566,3.4293 5.1377,14.134 15.4211,27.4115 10.2738,13.2756 31.254,5.9979 33.8269,-2.9961 2.5708,-9.0021 -13.7048,-23.9844 -14.9843,-31.2719 -1.2834,-7.2736 -0.8623,-2.5629 0,-7.2736 0.8523,-4.7146 -0.4291,-4.2836 -3.4272,-7.2816 -2.9999,-2.9958 15.4194,-61.6677 17.1301,-70.6597 1.7104,-8.9931 7.7068,-23.9815 11.5591,-29.5504 3.8544,-5.5688 12.8503,-38.5455 12.8503,-38.5455 0,0 3.8544,-0.8562 3.8544,-6.4213 0,-5.57 3.8545,-31.6922 3.8545,-31.6922 l 2.1436,-5.5688 10.2797,0.4282 c 0,0 0,6.4233 -0.4312,23.1243 -0.4271,16.7018 1.7125,26.9793 5.1378,38.9756 3.4272,11.9901 3.0001,15.8426 1.2875,23.5531 -1.7166,7.7079 0.8602,35.9766 0.8602,53.963 0,17.9863 -0.8602,41.5397 -0.8602,48.3921 0,6.8463 1.7126,20.1222 2.9941,35.9725 1.2893,15.8466 21.8466,14.1301 29.9805,7.7048 8.132,-6.4252 -1.2854,-29.9745 -5.998,-35.5475 -4.7068,-5.567 -4.2837,-16.2657 -2.9941,-27.4056 1.2834,-11.13 14.132,-66.3752 14.9922,-72.8006 0.8525,-6.4222 -0.8602,-11.5649 -3.4331,-25.6959 -2.5669,-14.1321 -2.5669,-28.6931 -1.7087,-32.9764 0.8524,-4.2805 6.8466,-5.1359 4.7087,-10.2786 -2.1417,-5.1378 4.2816,-11.1299 5.1437,-18.4156 0.8524,-7.2805 -3.858,-2.9979 -1.7145,-8.1367 2.1398,-5.136 12.4153,-3.8514 19.2678,-5.9942 6.8483,-2.1417 3.8524,-2.5718 4.2816,-5.1419 0.433,-2.5669 -5.9901,-16.6979 -5.9901,-16.6979 l 3.4923,-8.9359 c 2.1675,1.8066 4.9893,2.919 5.9269,5.7212 1.7443,5.2447 -3.8505,12.5836 -3.8505,12.5836 l 11.5374,5.9446 c 0,0 0.3461,4.8947 1.7482,16.7812 1.3964,11.8863 4.1945,42.6509 2.7965,63.2762 -1.3964,20.6264 6.6387,38.8027 5.5906,47.1976 -1.0521,8.389 -0.35,38.1045 -1.7443,47.1953 -1.4001,9.0873 -9.0948,20.6226 -13.6376,29.7157 -4.5444,9.0891 -12.9355,23.0708 -16.4319,37.4023 -3.4943,14.3416 21.3224,7.3429 26.571,3.5005 5.2427,-3.8466 9.0891,-12.9377 8.043,-17.4822 -1.0521,-4.5465 7.6888,-19.9244 7.6888,-19.9244 0.6943,-3.1481 5.2487,-0.3478 5.9447,3.4945 0.7062,3.8485 0,4.8967 -2.4423,15.7319 -2.4542,10.8413 13.6315,14.3336 24.8208,15.3839 11.1833,1.0479 5.2369,-25.1692 2.0923,-33.2119 -3.1442,-8.0352 0,-16.0801 -2.4423,-20.2825 -2.4462,-4.1906 -4.8986,-9.0831 -9.4409,-21.3206 -4.5448,-12.2334 -0.3502,-11.5372 0,-19.9243 0.3461,-8.391 1.7441,-13.2836 6.2926,-26.9192 4.5426,-13.6317 5.9427,-31.4666 4.8906,-41.2548 -1.0482,-9.7902 2.7983,-20.9733 3.8446,-25.5219 1.0541,-4.5447 14.3336,-34.6089 17.4819,-39.8526 0.965,-1.6069 2.0607,-3.3443 3.1581,-4.862 0,0.3254 0,0.6536 0,0.9779 0,16.6268 0,36.9941 0,36.9941 l 6.6506,1.244 c 0,0 1.6633,12.0545 3.3282,17.4573 1.6592,5.4037 1.2421,21.1989 1.2421,30.3425 0,9.1454 -4.157,15.3788 -2.0725,37.8246 2.0725,22.4458 10.8076,46.1375 11.2229,53.2015 0.4133,7.0679 4.1548,13.3013 4.1548,22.4476 0,9.1463 -0.8303,19.1156 2.4958,33.2477 3.3245,14.1339 25.7722,4.1588 26.1854,0.4189 0,4.9838 22.4437,7.8949 23.2764,-0.8303 0.2452,-2.6006 0.6388,-5.5869 1.0265,-8.7036 0.01,0.5894 0.028,1.1946 0.057,1.8274 0.5004,10.776 7.0127,7.5189 15.7834,12.7772 8.7666,5.2643 12.0217,-1.754 11.7725,-8.2623 -0.249,-6.5142 -2.7546,-15.5341 -3.5062,-21.7971 -0.7515,-6.269 1.5031,-1.505 2.7568,-5.7628 1.2539,-4.2578 0.7494,-15.283 0.7494,-15.283 0,0 7.7642,-1.7582 5.2644,-4.7621 -2.5057,-3.012 0.2493,-5.0132 1.0007,-13.2815 0.7516,-8.2623 8.5195,-24.55 10.774,-33.8171 2.2524,-9.271 12.5201,-23.3051 15.7813,-40.8386 3.2611,-17.5392 5.7588,-20.5422 8.5155,-38.3287 2.7548,-17.7846 6.5142,-33.0706 7.5249,-32.3202 0.9967,0.7495 4.7539,38.5833 4.2556,46.8495 -0.5062,8.2684 -1.0065,28.0632 0.2434,40.0901 1.2577,12.0198 1.2577,36.3206 1.2577,43.3372 0,7.0123 1.7522,20.7924 1.2517,32.5671 -0.4983,11.7744 0,9.524 0,12.526 0,3.0081 0.5005,4.7601 3.0062,11.2784 2.5076,6.5142 -0.2452,15.2809 -0.2452,15.2809 0,0 7.0105,1.2517 12.5221,6.2611 5.5155,5.0131 11.025,8.0231 23.8025,6.0159 1.7579,-0.2771 2.9407,-0.7712 3.6882,-1.422 5.1279,-0.2631 12.0021,-3.9769 13.9561,-7.3961 3.0393,-5.3099 -1.0067,-16.1847 -1.0067,-16.1847 h 5.0527 c 0,0 -2.021,-8.6007 -1.7678,-20.4861 0.2511,-11.8855 -11.1281,-13.1433 -11.1281,-13.1433 0,0 1.7698,-14.9208 4.3033,-21.2413 2.5271,-6.3262 2.7764,-13.4061 3.7908,-16.9421 1.0126,-3.5437 -1.0144,-18.716 -1.0144,-18.716 0,0 6.5775,-3.2887 6.5775,-7.8334 0,-4.5533 3.0319,-21.7495 4.0443,-30.5984 1.0126,-8.8568 1.2656,-14.923 4.2992,-22.5112 3.0337,-7.5829 4.8036,-6.8246 4.8036,-6.8246 0,0 -0.2531,-5.3118 0.5063,-10.6207 0.7595,-5.31 5.0568,-20.9904 6.3185,-22.2549 1.2656,-1.2628 0.7594,0.7612 2.027,4.0471 1.2617,3.2877 3.5399,31.8622 4.5504,56.3884 4.3014,23.0164 -0.2532,30.8535 -0.2532,30.8535 l 6.8287,2.2744 c 0,0 0.7573,11.1279 0.7573,21.7476 0,10.6257 1.264,19.2185 3.7911,28.5765 2.5294,9.356 1.2677,17.1953 -1.2616,23.2646 -2.5295,6.0691 -2.0232,6.3185 -3.797,8.5986 -1.77,2.2742 -0.7534,5.0585 -1.5149,12.3936 -0.7595,7.329 -6.8248,14.915 -6.5757,23.7668 0.2532,8.8517 6.3206,7.3351 16.691,2.2742 10.3727,-5.0547 7.5861,-11.6302 8.3455,-20.48 0.7577,-8.8518 1.5189,-13.1532 1.0126,-18.7161 -0.5062,-5.5573 1.0146,-11.124 1.2657,-22.5013 1.7681,-11.3811 7.0818,-42.9929 7.0818,-42.9929 l 3.0258,-1.2599 -1.0085,-17.9546 5.8162,-0.5103 c 0,0 -1.2617,-28.5734 -0.2551,-41.7234 1.0125,-13.1509 2.0229,-28.5743 2.2802,-35.6542 0.2511,-7.0839 -1.2677,-22.0019 -4.05,-26.8083 -2.7787,-4.8036 -3.54,-18.457 0.7633,-24.7766 4.2974,-6.3243 -4.5524,-10.6245 -5.3116,-13.9094 -0.7577,-3.2877 -2.5277,-7.334 1.5166,-9.102 4.0461,-1.772 2.0229,-4.5555 2.0229,-6.3255 -3e-4,-1.7692 1.7718,-1.519 1.7718,-1.519 z m -1315.81025,-62.075 c -1.3439,16.8245 -2.912,28.9374 -5.8279,33.8705 -2.9152,4.935 -3.1435,7.405 -2.6907,12.3391 0.4451,4.9334 -1.7966,16.3746 -1.7966,16.3746 0,0 0.4469,19.9649 0,17.4978 -0.448,-2.468 -5.8369,-11.4434 -5.8369,-11.4434 l 0.2314,-5.3842 -1.7997,-1.1193 c 0,0 -1.7919,-3.1395 -1.7919,-10.7671 0,-7.6276 5.834,-40.3768 9.4203,-55.6279 3.5923,-15.2542 6.2789,-36.3394 6.2789,-36.3394 0,0 2.019,3.8118 2.6964,5.1574 0.6709,1.3471 2.4655,18.6173 1.1167,35.4419 z m 92.8702,-51.3673 c 0.2246,-7.1797 2.4651,-4.7097 6.7279,-16.151 0.4053,-1.0897 0.6309,-2.1318 0.7763,-3.1494 -0.9285,9.7346 -2.2723,20.1329 -4.1915,28.2383 -0.7525,3.179 -1.2982,6.1956 -1.7126,9.1324 -1.1165,-7.0234 -1.7374,-13.6809 -1.6001,-18.0703 z m 263.97565,75.4011 c -3.4706,2.1713 -6.9453,0.8651 -7.3785,-13.4637 -0.437,-14.3305 -3.9137,-56.0215 -3.9137,-77.7346 0,-21.717 1.7401,-34.3105 1.7401,-34.3105 0,0 3.9078,8.6857 3.9078,31.703 0,23.0174 0,43.4302 1.7383,52.5488 1.7367,9.1209 7.3826,39.0846 3.906,41.257 z m 39.117,-128.0746 c -2.1516,-0.7158 -3.2294,-3.5864 -1.4375,-7.1718 1.7955,-3.5864 5.3849,-22.5961 7.5345,-20.0844 0,0 2.5095,18.2898 3.9474,26.5403 1.4337,8.2476 1.7917,14.7026 1.7917,14.7026 0,0 -9.6825,-13.2707 -11.8361,-13.9867 z m 121.7335,8.7608 c -2.9979,26.2943 -8.9901,34.2828 -8.9901,34.2828 0,0 2.7885,-34.608 5.8973,-53.6969 1.3092,-4.7056 2.5828,-8.0676 3.609,-8.8795 0.7298,3.5775 1.3902,11.5394 -0.5162,28.2936 z m 124.3519,149.7036 c -5.9429,1.9835 -4.4576,-4.9499 0,-16.8323 0,0 5.9386,14.8539 0,16.8323 z m 12.3778,-36.6428 c 0,0 -0.9889,-8.4149 0,-16.8324 0.9906,-8.4207 4.9498,-11.392 5.9427,-2.9714 0.9886,8.4146 -1.9817,21.2927 -5.9427,19.8038 z m 83.6862,172.8208 c -0.9886,23.2704 -4.9501,54.9656 -4.9501,66.3526 0,11.391 -2.9684,27.2395 -2.9684,27.2395 0,0 -3.967,34.1611 -7.4338,28.2203 -3.4626,-5.9387 -4.9519,-31.691 -4.9519,-50.9984 0,-19.3171 0.9948,-56.953 0,-63.8806 -0.9888,-6.9355 -5.4424,-17.8312 -1.4811,-38.1313 3.9589,-20.305 1.9775,-51.4998 1.9775,-56.4526 0,-4.949 2.9723,-17.8222 2.9723,-17.8222 h 12.8721 c 0,0 1.4913,46.0525 1.4913,55.9552 3e-4,9.903 3.461,26.2439 2.4721,49.5175 z m 60.6827,-294.7204 c -1.3348,12.5419 -2.9684,26.923 -5.4265,38.6166 -0.9453,-24.4611 -4.2518,-63.2903 -4.2518,-63.2903 0,0 4.6612,11.909 9.6783,24.6737 z m 0.4391,121.3378 c -1.3627,2.2397 -2.9525,4.9391 -4.6177,7.9342 -0.018,-0.4767 -0.034,-0.9521 -0.051,-1.4289 -0.8088,-20.9161 -0.6288,-47.064 -0.803,-68.616 5.207,11.037 17.8972,15.8564 17.8972,15.8564 0,0 -6.4308,36.4008 -12.4251,46.2543 z m 151.2553,-40.2116 c 1.4219,3.3133 0,7.1024 -0.9474,9.4697 -0.9432,2.3633 -2.8398,12.3045 -2.8398,12.3045 h -4.2579 c 0,0 5.2091,-9.4697 -0.4725,-15.1443 -0.024,-0.0238 -0.042,-0.0454 -0.065,-0.0682 0.2195,-8.397 0.4232,-19.9146 0.5061,-36.1595 l 2.3989,1.2003 c -10e-5,0 4.2577,25.0869 5.6778,28.3975 z m 102.6553,-78.2756 c 0,0 1.6671,8.7271 3.3264,11.6381 1.6632,2.911 1.2457,5.8161 1.2457,9.5599 0,0.8314 -0.619,1.6839 -1.5859,2.5303 -1.8611,-6.4264 -4.1451,-14.576 -6.979,-25.1849 1.8611,1.0927 3.9928,1.4566 3.9928,1.4566 z m -75.0124,402.131 c 0,0 -5.5927,0.7001 -3.8464,-8.0409 1.7441,-8.7369 3.4944,-17.48 3.4944,-17.48 0,0 4.1984,22.3787 0.352,25.5209 z m 113.5875,-16.6691 c -0.7039,3.526 -3.53,8.4679 -3.53,15.8722 0,7.4003 -3.522,4.5822 -3.876,12.3441 -0.3521,7.7523 -4.2322,22.5646 -4.2322,24.3306 0,1.7622 -2.1119,7.4042 -2.4659,0.702 -0.354,-6.7002 -4.2322,-17.2803 -4.2322,-19.7445 0,-2.4661 0,-3.526 -2.8219,-11.64 -2.8181,-8.1082 -9.5203,-17.9844 -7.4044,-31.7328 2.1143,-13.7522 1.0603,-26.0945 0.7021,-52.188 -0.3481,-26.0975 4.2382,-33.8506 4.2382,-41.9598 0,-8.114 1.054,-33.1506 1.054,-33.1506 l 13.7523,-0.352 c 0,0 -1.764,27.8557 2.468,38.0846 4.2322,10.2262 2.818,16.2163 2.818,21.8625 0,5.6412 -0.7019,32.4387 -0.3459,40.9045 0.3459,8.4664 4.5838,33.145 3.8759,36.6672 z m 13.2717,-264.5858 c 0.4211,-4.6652 5.0905,-8.91 5.0905,-18.2404 0,-9.3314 0,-27.998 5.9407,-28.4212 0,0 1.3943,1.3359 3.5834,3.4786 -0.1603,0.365 -0.3163,0.712 -0.4764,1.0867 -6.7615,15.7823 -9.269,28.5587 -9.269,28.5587 l 8.7705,2.7567 c 0,0 1.0027,19.0422 1.0027,27.5591 0,3.6683 -0.605,8.6896 -1.2933,14.5729 -6.7083,-2.381 -13.7326,-27.0953 -13.3491,-31.3511 z m 24.914,186.3874 c -2.0033,13.0284 -12.5262,49.3569 -16.0345,58.1238 -3.5062,8.7687 -3.0059,22.0482 -2.5034,23.7986 0.5023,1.7521 -1.0028,2.7545 -1.0028,2.7545 0,0 -1.756,4.0046 -2.0052,5.5137 -0.2532,1.5049 -1.0046,10.5189 -0.7534,15.028 0.2531,4.5166 2.2545,7.0205 1.0027,8.2701 -0.6349,0.6348 -1.5881,2.0449 -2.3101,4.6732 0.285,-4.2598 0.2928,-8.3871 -0.3696,-11.8557 -1.6572,-8.7311 -0.4094,-21.6134 -0.4094,-21.6134 0,0 2.4899,-30.3423 8.7253,-43.6437 6.2391,-13.3034 0.415,-46.1394 -0.8308,-50.7106 -1.2419,-4.5714 2.4899,-48.6324 2.4899,-48.6324 l 1.5862,-0.7929 c 0.5912,1.0294 1.224,2.0182 1.8926,2.9675 4.76,6.7613 9.0177,3.5072 9.0177,3.5072 0,0 3.5061,39.5816 1.5048,52.6121 z m -1.2518,-93.9501 c -0.2493,-16.2835 3.7556,-36.3306 3.7556,-36.3306 0,0 3.5138,38.8331 -3.7556,36.3306 z m 95.2495,-93.9916 c 0.7395,7.6275 1.1666,15.8071 1.4,23.6809 -2.8677,-8.2903 -4.9282,-14.2675 -1.4,-23.6809 z m -3.8821,177.4879 c -0.5677,6.8614 -1.1056,12.6212 -1.3112,13.957 -0.198,1.2935 -0.4036,1.9925 -0.726,2.4809 0.032,-0.2985 0.065,-0.617 0.1088,-0.9748 0.2928,-2.4258 0.9988,-8.3891 1.9284,-15.4631 z m 0.075,133.4646 c -3.7555,-4.0125 -6.5142,-9.0177 -6.01,-10.0204 0.5004,-1.0046 -0.5042,-13.7841 -1.0026,-21.2988 -0.5024,-7.5129 2.7546,-22.2976 4.76,-31.3134 0.6526,-2.9387 0.9551,-7.4301 1.0739,-12.4827 0.028,0.7356 0.043,1.3784 0.043,1.8884 0,6.3187 4.3014,46.019 4.3014,49.5588 0,3.5419 0.7555,15.6805 3.7889,23.2666 1.4199,3.5536 0.8427,5.4404 0.01,7.1984 -2.6956,-2.818 -5.6402,-5.3848 -6.9651,-6.7969 z"
   id="path4651"
   style="fill:#000080" />
<text
   xml:space="preserve"
   style="font-size:100px;fill:#000080;fill-opacity:1"
   x="660.67902"
   y="1158.8835"
   id="text5286"><tspan
     sodipodi:role="line"
     id="tspan5284"
     x="660.67902"
     y="1158.8835"
     style="font-size:100px">Explore, Challenge, Lead !...</tspan></text></g>
</svg>
